<svg data-v-423bf9ae="" xmlns="http://www.w3.org/2000/svg" viewBox="0 0 92.98207669749979 60" class="icon"><!----><!----><!----><!----><g data-v-423bf9ae="" id="54ce094a-8eed-4019-a524-f3eacfafc418" transform="matrix(1.0331111525354661,0,0,1.0331111525354661,-5.165555788978494,-21.82963778605302)" stroke="none" fill="black"><g fill-rule="evenodd"><path d="M5 21.13v3.777h21.01c1.318 4.274 6.082 24.15-7.908 54.3h33.816c.485-5.493 4.534-9.738 9.443-9.738.949 0 1.853.177 2.715.472-3.974-6.577-2.351-13.923 1.948-21.659 1.966 6.106 3.306 14.653-1.948 21.659 3.595 1.233 6.277 4.835 6.669 9.266h11.096c-13.956-30.14-9.172-50.02-7.849-54.3h21.01V21.13h-90m43.495 29.449c7.07 5.624 10.794 11.367 10.21 19.298-7.374-3.615-9.931-10.638-10.21-19.298"></path><path d="M60.29 75.4a2.125 2.125 0 0 1-4.249 0 2.125 2.125 0 1 1 4.25 0M66.664 75.4a2.125 2.125 0 0 1-4.25 0 2.125 2.125 0 1 1 4.25 0"></path></g></g><!----></svg>