<svg data-v-fde0c5aa="" xmlns="http://www.w3.org/2000/svg" viewBox="0 0 300 300" class="iconAboveSlogan"><!----><defs data-v-fde0c5aa=""><!----></defs><rect data-v-fde0c5aa="" fill="#000000" x="0" y="0" width="300px" height="300px" class="logo-background-square"></rect><defs data-v-fde0c5aa=""><!----></defs><g data-v-fde0c5aa="" id="3e8d40a7-f319-45ad-bb4a-e33cde518cbd" fill="#FFFFFF" transform="matrix(4.089014518286579,0,0,4.089014518286579,17.403475819883905,147.28227237554756)"><path d="M8.11 13.73L8.11 13.73L8.11 13.73Q7.70 13.71 7.55 13.47L7.55 13.47L7.55 13.47Q7.40 13.23 7.37 12.81L7.37 12.81L7.37 12.81Q7.34 12.39 7.40 11.81L7.40 11.81L7.40 11.81Q7.45 11.22 7.45 10.54L7.45 10.54L7.45 10.54Q7.46 9.19 7.55 8.07L7.55 8.07L7.55 8.07Q7.64 6.96 7.60 5.91L7.60 5.91L7.60 5.91Q7.60 5.82 7.60 5.76L7.60 5.76L7.60 5.76Q7.60 5.69 7.59 5.62L7.59 5.62L7.59 5.62Q7.52 5.85 7.43 6.15L7.43 6.15L7.43 6.15Q7.34 6.44 7.22 6.79L7.22 6.79L7.22 6.79Q6.97 7.56 6.73 8.37L6.73 8.37L6.73 8.37Q6.49 9.17 6.27 9.93L6.27 9.93L6.27 9.93Q6.04 10.69 5.84 11.34L5.84 11.34L5.84 11.34Q5.65 11.99 5.50 12.43L5.50 12.43L5.50 12.43Q5.35 12.87 5.20 13.08L5.20 13.08L5.20 13.08Q5.06 13.29 4.92 13.37L4.92 13.37L4.92 13.37Q4.77 13.45 4.63 13.44L4.63 13.44L4.63 13.44Q4.48 13.43 4.35 13.41L4.35 13.41L4.35 13.41Q4.29 12.95 4.14 12.32L4.14 12.32L4.14 12.32Q3.99 11.69 3.83 11.12L3.83 11.12L3.83 11.12Q3.64 10.45 3.40 9.75L3.40 9.75L3.40 9.75Q3.09 8.54 2.75 7.55L2.75 7.55L2.75 7.55Q2.41 6.55 2.21 5.91L2.21 5.91L2.21 5.91Q2.13 6.60 2.09 7.51L2.09 7.51L2.09 7.51Q2.05 8.41 2.04 9.31L2.04 9.31L2.04 9.31Q2.02 10.21 2.05 11.01L2.05 11.01L2.05 11.01Q2.08 11.81 2.13 12.30L2.13 12.30L2.13 12.30Q2.15 12.51 2.19 12.71L2.19 12.71L2.19 12.71Q2.21 12.89 2.26 13.08L2.26 13.08L2.26 13.08Q2.31 13.26 2.38 13.41L2.38 13.41L2.38 13.41Q2.31 13.47 2.21 13.51L2.21 13.51L2.21 13.51Q2.12 13.55 2.01 13.58L2.01 13.58L2.01 13.58Q1.89 13.62 1.75 13.64L1.75 13.64L1.75 13.64Q1.22 13.75 0.98 13.62L0.98 13.62L0.98 13.62Q0.74 13.48 0.68 13.07L0.68 13.07L0.68 13.07Q0.66 12.87 0.64 12.30L0.64 12.30L0.64 12.30Q0.63 11.74 0.64 11.01L0.64 11.01L0.64 11.01Q0.64 10.28 0.67 9.47L0.67 9.47L0.67 9.47Q0.70 8.67 0.75 7.97L0.75 7.97L0.75 7.97Q0.81 7.41 0.86 6.75L0.86 6.75L0.86 6.75Q0.92 6.18 0.97 5.43L0.97 5.43L0.97 5.43Q1.03 4.68 1.09 3.80L1.09 3.80L1.09 3.80Q1.13 3.72 1.23 3.66L1.23 3.66L1.23 3.66Q1.33 3.60 1.44 3.55L1.44 3.55L1.44 3.55Q1.56 3.50 1.71 3.47L1.71 3.47L1.71 3.47Q1.94 3.43 2.12 3.40L2.12 3.40L2.12 3.40Q2.27 3.38 2.40 3.36L2.40 3.36L2.40 3.36Q2.53 3.35 2.50 3.36L2.50 3.36L2.50 3.36Q2.68 3.73 2.78 3.97L2.78 3.97L2.78 3.97Q2.87 4.21 2.97 4.54L2.97 4.54L2.97 4.54Q3.08 4.87 3.23 5.40L3.23 5.40L3.23 5.40Q3.39 5.93 3.69 6.89L3.69 6.89L3.69 6.89Q4.10 8.22 4.40 9.20L4.40 9.20L4.40 9.20Q4.69 10.19 4.84 10.71L4.84 10.71L4.84 10.71Q4.94 10.53 5.03 10.32L5.03 10.32L5.03 10.32Q5.13 10.10 5.23 9.80L5.23 9.80L5.23 9.80Q5.33 9.50 5.45 9.10L5.45 9.10L5.45 9.10Q5.56 8.70 5.71 8.13L5.71 8.13L5.71 8.13Q5.91 7.52 6.11 6.81L6.11 6.81L6.11 6.81Q6.28 6.21 6.47 5.43L6.47 5.43L6.47 5.43Q6.67 4.66 6.85 3.83L6.85 3.83L6.85 3.83Q7.29 3.65 7.56 3.56L7.56 3.56L7.56 3.56Q7.83 3.47 7.98 3.42L7.98 3.42L7.98 3.42Q8.16 3.36 8.24 3.35L8.24 3.35L8.24 3.35Q8.33 3.36 8.41 3.43L8.41 3.43L8.41 3.43Q8.48 3.50 8.57 3.62L8.57 3.62L8.57 3.62Q8.67 3.75 8.78 3.99L8.78 3.99L8.78 3.99Q8.78 4.18 8.78 4.61L8.78 4.61L8.78 4.61Q8.78 5.03 8.78 5.58L8.78 5.58L8.78 5.58Q8.78 6.14 8.76 6.78L8.76 6.78L8.76 6.78Q8.75 7.42 8.74 8.07L8.74 8.07L8.74 8.07Q8.74 8.72 8.73 9.34L8.73 9.34L8.73 9.34Q8.72 9.95 8.71 10.43L8.71 10.43L8.71 10.43Q8.68 11.16 8.70 11.66L8.70 11.66L8.70 11.66Q8.72 12.17 8.78 12.50L8.78 12.50L8.78 12.50Q8.85 12.84 8.95 13.04L8.95 13.04L8.95 13.04Q9.05 13.25 9.20 13.37L9.20 13.37L9.20 13.37Q9.16 13.40 9.04 13.46L9.04 13.46L9.04 13.46Q8.93 13.52 8.76 13.58L8.76 13.58L8.76 13.58Q8.60 13.64 8.42 13.69L8.42 13.69L8.42 13.69Q8.24 13.73 8.11 13.73ZM10.13 7.72L10.13 7.72L10.13 7.72Q10.13 7.64 10.35 7.55L10.35 7.55L10.35 7.55Q10.57 7.45 10.83 7.39L10.83 7.39L10.83 7.39Q11.10 7.33 11.33 7.32L11.33 7.32L11.33 7.32Q11.55 7.31 11.55 7.42L11.55 7.42L11.55 7.42Q11.55 7.63 11.53 8.00L11.53 8.00L11.53 8.00Q11.50 8.38 11.46 8.80L11.46 8.80L11.46 8.80Q11.42 9.21 11.38 9.63L11.38 9.63L11.38 9.63Q11.33 10.05 11.32 10.34L11.32 10.34L11.32 10.34Q11.29 10.64 11.27 10.99L11.27 10.99L11.27 10.99Q11.24 11.29 11.22 11.66L11.22 11.66L11.22 11.66Q11.21 12.03 11.22 12.41L11.22 12.41L11.22 12.41Q11.22 12.48 11.09 12.55L11.09 12.55L11.09 12.55Q10.95 12.62 10.79 12.65L10.79 12.65L10.79 12.65Q10.62 12.69 10.47 12.69L10.47 12.69L10.47 12.69Q10.32 12.69 10.31 12.63L10.31 12.63L10.31 12.63Q10.28 12.58 10.25 12.44L10.25 12.44L10.25 12.44Q10.23 12.30 10.20 12.05L10.20 12.05L10.20 12.05Q10.17 11.80 10.16 11.40L10.16 11.40L10.16 11.40Q10.14 10.99 10.17 10.42L10.17 10.42L10.17 10.42Q10.23 9.28 10.19 8.66L10.19 8.66L10.19 8.66Q10.14 8.04 10.13 7.72ZM11.09 5.00L11.09 5.00L11.09 5.00Q11.36 5.00 11.61 5.17L11.61 5.17L11.61 5.17Q11.85 5.33 11.85 5.61L11.85 5.61L11.85 5.61Q11.85 5.81 11.75 6.00L11.75 6.00L11.75 6.00Q11.65 6.19 11.50 6.34L11.50 6.34L11.50 6.34Q11.35 6.49 11.16 6.58L11.16 6.58L11.16 6.58Q10.96 6.67 10.80 6.67L10.80 6.67L10.80 6.67Q10.58 6.67 10.45 6.60L10.45 6.60L10.45 6.60Q10.31 6.52 10.23 6.42L10.23 6.42L10.23 6.42Q10.16 6.32 10.13 6.19L10.13 6.19L10.13 6.19Q10.10 6.07 10.10 5.96L10.10 5.96L10.10 5.96Q10.10 5.82 10.14 5.65L10.14 5.65L10.14 5.65Q10.19 5.48 10.29 5.34L10.29 5.34L10.29 5.34Q10.40 5.20 10.60 5.10L10.60 5.10L10.60 5.10Q10.79 5.00 11.09 5.00ZM10.75 6.28L10.75 6.28L10.75 6.28Q10.83 6.28 10.93 6.21L10.93 6.21L10.93 6.21Q11.03 6.15 11.12 6.07L11.12 6.07L11.12 6.07Q11.21 5.99 11.27 5.89L11.27 5.89L11.27 5.89Q11.33 5.80 11.33 5.73L11.33 5.73L11.33 5.73Q11.33 5.62 11.22 5.62L11.22 5.62L11.22 5.62Q11.16 5.62 11.05 5.67L11.05 5.67L11.05 5.67Q10.95 5.73 10.86 5.80L10.86 5.80L10.86 5.80Q10.76 5.88 10.70 5.97L10.70 5.97L10.70 5.97Q10.64 6.06 10.64 6.14L10.64 6.14L10.64 6.14Q10.64 6.28 10.75 6.28ZM14.66 9.97L14.66 9.97L14.66 9.97Q14.96 10.08 15.23 10.17L15.23 10.17L15.23 10.17Q15.50 10.27 15.71 10.40L15.71 10.40L15.71 10.40Q15.91 10.54 16.04 10.73L16.04 10.73L16.04 10.73Q16.16 10.91 16.16 11.18L16.16 11.18L16.16 11.18Q16.16 11.51 16.02 11.80L16.02 11.80L16.02 11.80Q15.87 12.09 15.60 12.30L15.60 12.30L15.60 12.30Q15.33 12.52 14.94 12.65L14.94 12.65L14.94 12.65Q14.55 12.78 14.07 12.78L14.07 12.78L14.07 12.78Q13.54 12.78 13.21 12.68L13.21 12.68L13.21 12.68Q12.88 12.58 12.70 12.44L12.70 12.44L12.70 12.44Q12.52 12.30 12.47 12.17L12.47 12.17L12.47 12.17Q12.41 12.03 12.41 11.95L12.41 11.95L12.41 11.95Q12.41 11.79 12.48 11.59L12.48 11.59L12.48 11.59Q12.55 11.39 12.74 11.16L12.74 11.16L12.74 11.16Q12.82 11.06 12.92 10.98L12.92 10.98L12.92 10.98Q13.11 10.81 13.30 10.77L13.30 10.77L13.30 10.77Q13.28 11.09 13.38 11.29L13.38 11.29L13.38 11.29Q13.48 11.48 13.65 11.59L13.65 11.59L13.65 11.59Q13.82 11.70 14.03 11.74L14.03 11.74L14.03 11.74Q14.25 11.79 14.44 11.79L14.44 11.79L14.44 11.79Q14.63 11.79 14.83 11.73L14.83 11.73L14.83 11.73Q15.03 11.68 15.19 11.59L15.19 11.59L15.19 11.59Q15.35 11.50 15.46 11.38L15.46 11.38L15.46 11.38Q15.56 11.27 15.56 11.13L15.56 11.13L15.56 11.13Q15.56 10.98 15.44 10.88L15.44 10.88L15.44 10.88Q15.31 10.79 15.13 10.73L15.13 10.73L15.13 10.73Q14.94 10.66 14.73 10.63L14.73 10.63L14.73 10.63Q14.52 10.60 14.33 10.55L14.33 10.55L14.33 10.55Q14.14 10.51 13.82 10.44L13.82 10.44L13.82 10.44Q13.49 10.36 13.19 10.20L13.19 10.20L13.19 10.20Q12.88 10.04 12.65 9.76L12.65 9.76L12.65 9.76Q12.43 9.49 12.43 9.04L12.43 9.04L12.43 9.04Q12.43 8.52 12.69 8.13L12.69 8.13L12.69 8.13Q12.96 7.74 13.35 7.47L13.35 7.47L13.35 7.47Q13.74 7.21 14.18 7.07L14.18 7.07L14.18 7.07Q14.62 6.93 14.96 6.93L14.96 6.93L14.96 6.93Q15.13 6.93 15.34 6.98L15.34 6.98L15.34 6.98Q15.54 7.03 15.72 7.14L15.72 7.14L15.72 7.14Q15.90 7.26 16.02 7.45L16.02 7.45L16.02 7.45Q16.13 7.64 16.13 7.94L16.13 7.94L16.13 7.94Q16.13 8.24 16.08 8.43L16.08 8.43L16.08 8.43Q16.04 8.61 15.95 8.72L15.95 8.72L15.95 8.72Q15.86 8.82 15.74 8.85L15.74 8.85L15.74 8.85Q15.61 8.87 15.45 8.87L15.45 8.87L15.45 8.87Q15.34 8.87 15.24 8.85L15.24 8.85L15.24 8.85Q15.16 8.82 15.07 8.79L15.07 8.79L15.07 8.79Q14.97 8.76 14.89 8.70L14.89 8.70L14.89 8.70Q15.03 8.53 15.10 8.38L15.10 8.38L15.10 8.38Q15.18 8.23 15.18 8.01L15.18 8.01L15.18 8.01Q15.18 7.82 15.07 7.67L15.07 7.67L15.07 7.67Q14.97 7.52 14.74 7.52L14.74 7.52L14.74 7.52Q14.49 7.52 14.27 7.62L14.27 7.62L14.27 7.62Q14.04 7.71 13.87 7.88L13.87 7.88L13.87 7.88Q13.70 8.04 13.60 8.25L13.60 8.25L13.60 8.25Q13.49 8.46 13.49 8.71L13.49 8.71L13.49 8.71Q13.49 9.08 13.77 9.41L13.77 9.41L13.77 9.41Q14.05 9.73 14.66 9.97ZM22.09 6.48L22.09 6.48L22.09 6.48Q21.94 6.45 21.69 6.43L21.69 6.43L21.69 6.43Q21.44 6.40 21.18 6.38L21.18 6.38L21.18 6.38Q20.88 6.37 20.54 6.37L20.54 6.37L20.54 6.37Q20.19 6.34 19.68 6.36L19.68 6.36L19.68 6.36Q19.17 6.38 18.61 6.38L18.61 6.38L18.61 6.38Q18.59 6.74 18.56 7.11L18.56 7.11L18.56 7.11Q18.53 7.48 18.50 7.83L18.50 7.83L18.50 7.83Q18.43 8.49 18.38 9.17L18.38 9.17L18.38 9.17Q18.33 9.86 18.33 10.47L18.33 10.47L18.33 10.47Q18.33 11.09 18.41 11.59L18.41 11.59L18.41 11.59Q18.48 12.09 18.69 12.37L18.69 12.37L18.69 12.37Q18.53 12.50 18.33 12.56L18.33 12.56L18.33 12.56Q18.14 12.62 17.99 12.65L17.99 12.65L17.99 12.65Q17.81 12.69 17.64 12.69L17.64 12.69L17.64 12.69Q17.47 12.69 17.36 12.58L17.36 12.58L17.36 12.58Q17.25 12.47 17.24 12.20L17.24 12.20L17.24 12.20Q17.21 11.73 17.23 11.26L17.23 11.26L17.23 11.26Q17.25 10.79 17.29 10.27L17.29 10.27L17.29 10.27Q17.32 9.75 17.36 9.15L17.36 9.15L17.36 9.15Q17.40 8.56 17.45 7.85L17.45 7.85L17.45 7.85Q17.49 7.11 17.49 6.41L17.49 6.41L17.49 6.41Q16.97 6.43 16.61 6.43L16.61 6.43L16.61 6.43Q16.26 6.43 16.21 6.41L16.21 6.41L16.21 6.41Q16.17 6.38 16.12 6.29L16.12 6.29L16.12 6.29Q16.06 6.21 15.98 6.04L15.98 6.04L15.98 6.04Q15.89 5.88 15.75 5.58L15.75 5.58L15.75 5.58Q16.01 5.58 16.32 5.58L16.32 5.58L16.32 5.58Q16.63 5.58 16.88 5.56L16.88 5.56L16.88 5.56Q17.19 5.55 17.49 5.54L17.49 5.54L17.49 5.54Q17.47 5.32 17.47 5.07L17.47 5.07L17.47 5.07Q17.46 4.88 17.46 4.64L17.46 4.64L17.46 4.64Q17.46 4.40 17.45 4.20L17.45 4.20L17.45 4.20Q17.45 4.12 17.64 4.00L17.64 4.00L17.64 4.00Q17.84 3.88 18.07 3.79L18.07 3.79L18.07 3.79Q18.31 3.69 18.50 3.66L18.50 3.66L18.50 3.66Q18.70 3.64 18.70 3.76L18.70 3.76L18.70 3.76Q18.70 3.88 18.70 4.35L18.70 4.35L18.70 4.35Q18.69 4.83 18.66 5.50L18.66 5.50L18.66 5.50Q18.80 5.50 18.87 5.48L18.87 5.48L18.87 5.48Q19.59 5.46 20.04 5.42L20.04 5.42L20.04 5.42Q20.48 5.39 20.77 5.41L20.77 5.41L20.77 5.41Q21.05 5.44 21.27 5.55L21.27 5.55L21.27 5.55Q21.49 5.66 21.77 5.91L21.77 5.91L21.77 5.91Q21.86 5.99 21.93 6.08L21.93 6.08L21.93 6.08Q22.00 6.17 22.05 6.27L22.05 6.27L22.05 6.27Q22.09 6.37 22.09 6.48ZM21.63 12.71L21.63 12.71L21.63 12.71Q20.67 12.71 20.15 12.07L20.15 12.07L20.15 12.07Q19.63 11.43 19.63 10.39L19.63 10.39L19.63 10.39Q19.63 9.67 19.84 9.03L19.84 9.03L19.84 9.03Q20.06 8.39 20.41 7.93L20.41 7.93L20.41 7.93Q20.77 7.46 21.24 7.20L21.24 7.20L21.24 7.20Q21.71 6.93 22.23 6.93L22.23 6.93L22.23 6.93Q22.74 6.93 23.09 7.29L23.09 7.29L23.09 7.29Q23.45 7.66 23.45 8.33L23.45 8.33L23.45 8.33Q23.45 8.76 23.26 9.19L23.26 9.19L23.26 9.19Q23.06 9.63 22.76 9.96L22.76 9.96L22.76 9.96Q22.45 10.29 22.08 10.50L22.08 10.50L22.08 10.50Q21.71 10.71 21.37 10.71L21.37 10.71L21.37 10.71Q21.15 10.71 21 10.65L21 10.65L21 10.65Q20.85 10.60 20.73 10.49L20.73 10.49L20.73 10.49Q20.77 11.27 21.07 11.57L21.07 11.57L21.07 11.57Q21.37 11.88 21.85 11.88L21.85 11.88L21.85 11.88Q22.18 11.88 22.43 11.74L22.43 11.74L22.43 11.74Q22.68 11.61 22.86 11.43L22.86 11.43L22.86 11.43Q23.04 11.25 23.15 11.07L23.15 11.07L23.15 11.07Q23.26 10.88 23.30 10.79L23.30 10.79L23.30 10.79Q23.34 10.71 23.44 10.71L23.44 10.71L23.44 10.71Q23.54 10.71 23.54 10.87L23.54 10.87L23.54 10.87Q23.54 11.02 23.44 11.33L23.44 11.33L23.44 11.33Q23.34 11.63 23.11 11.94L23.11 11.94L23.11 11.94Q22.87 12.25 22.51 12.48L22.51 12.48L22.51 12.48Q22.15 12.71 21.63 12.71ZM22.26 7.52L22.26 7.52L22.26 7.52Q22.18 7.52 21.95 7.69L21.95 7.69L21.95 7.69Q21.72 7.86 21.47 8.19L21.47 8.19L21.47 8.19Q21.22 8.52 21.01 8.98L21.01 8.98L21.01 8.98Q20.79 9.43 20.74 10.01L20.74 10.01L20.74 10.01Q21.56 9.82 22.04 9.41L22.04 9.41L22.04 9.41Q22.52 9.00 22.52 8.20L22.52 8.20L22.52 8.20Q22.52 7.81 22.42 7.66L22.42 7.66L22.42 7.66Q22.33 7.52 22.26 7.52ZM28.04 8.37L28.04 8.37L28.04 8.37Q28.04 8.56 27.94 8.76L27.94 8.76L27.94 8.76Q27.84 8.96 27.69 9.13L27.69 9.13L27.69 9.13Q27.54 9.31 27.35 9.44L27.35 9.44L27.35 9.44Q27.17 9.57 27.00 9.60L27.00 9.60L27.00 9.60Q27.11 9.17 27.07 8.94L27.07 8.94L27.07 8.94Q27.03 8.71 26.93 8.60L26.93 8.60L26.93 8.60Q26.82 8.48 26.66 8.46L26.66 8.46L26.66 8.46Q26.41 8.46 26.19 8.74L26.19 8.74L26.19 8.74Q25.96 9.02 25.80 9.43L25.80 9.43L25.80 9.43Q25.63 9.83 25.54 10.29L25.54 10.29L25.54 10.29Q25.44 10.75 25.44 11.12L25.44 11.12L25.44 11.12Q25.43 11.38 25.46 11.62L25.46 11.62L25.46 11.62Q25.47 11.83 25.50 12.04L25.50 12.04L25.50 12.04Q25.54 12.26 25.61 12.39L25.61 12.39L25.61 12.39Q25.53 12.46 25.34 12.55L25.34 12.55L25.34 12.55Q25.16 12.65 24.96 12.67L24.96 12.67L24.96 12.67Q24.76 12.70 24.60 12.61L24.60 12.61L24.60 12.61Q24.45 12.51 24.43 12.20L24.43 12.20L24.43 12.20Q24.40 11.89 24.40 11.52L24.40 11.52L24.40 11.52Q24.39 11.14 24.40 10.77L24.40 10.77L24.40 10.77Q24.40 10.39 24.42 10.02L24.42 10.02L24.42 10.02Q24.43 9.65 24.46 9.34L24.46 9.34L24.46 9.34Q24.49 8.74 24.49 8.41L24.49 8.41L24.49 8.41Q24.49 8.08 24.47 7.78L24.47 7.78L24.47 7.78Q24.47 7.72 24.66 7.62L24.66 7.62L24.66 7.62Q24.84 7.52 25.07 7.44L25.07 7.44L25.07 7.44Q25.29 7.36 25.48 7.34L25.48 7.34L25.48 7.34Q25.68 7.33 25.68 7.42L25.68 7.42L25.68 7.42Q25.68 7.57 25.64 8.02L25.64 8.02L25.64 8.02Q25.61 8.46 25.55 8.94L25.55 8.94L25.55 8.94Q25.65 8.68 25.81 8.38L25.81 8.38L25.81 8.38Q25.96 8.08 26.17 7.82L26.17 7.82L26.17 7.82Q26.37 7.56 26.63 7.39L26.63 7.39L26.63 7.39Q26.89 7.22 27.21 7.22L27.21 7.22L27.21 7.22Q27.45 7.22 27.61 7.37L27.61 7.37L27.61 7.37Q27.77 7.52 27.86 7.71L27.86 7.71L27.86 7.71Q27.96 7.90 28 8.09L28 8.09L28 8.09Q28.04 8.29 28.04 8.37ZM34.34 13.77L34.34 13.77L34.34 13.77Q33.61 13.77 33.00 13.41L33.00 13.41L33.00 13.41Q32.40 13.04 31.99 12.41L31.99 12.41L31.99 12.41Q31.57 11.79 31.34 10.94L31.34 10.94L31.34 10.94Q31.12 10.09 31.12 9.11L31.12 9.11L31.12 9.11Q31.12 7.70 31.45 6.59L31.45 6.59L31.45 6.59Q31.77 5.48 32.31 4.72L32.31 4.72L32.31 4.72Q32.85 3.95 33.54 3.54L33.54 3.54L33.54 3.54Q34.23 3.13 34.96 3.13L34.96 3.13L34.96 3.13Q35.64 3.13 36.11 3.38L36.11 3.38L36.11 3.38Q36.57 3.62 36.85 4.01L36.85 4.01L36.85 4.01Q37.13 4.39 37.24 4.85L37.24 4.85L37.24 4.85Q37.34 5.30 37.30 5.71L37.30 5.71L37.30 5.71Q37.23 6.51 36.76 7L36.76 7L36.76 7Q36.29 7.49 35.67 7.49L35.67 7.49L35.67 7.49Q35.46 7.48 35.25 7.42L35.25 7.42L35.25 7.42Q35.05 7.37 34.85 7.26L34.85 7.26L34.85 7.26Q34.64 7.15 34.47 6.95L34.47 6.95L34.47 6.95Q35.04 6.99 35.36 6.71L35.36 6.71L35.36 6.71Q35.67 6.44 35.82 6.10L35.82 6.10L35.82 6.10Q35.98 5.70 36.01 5.17L36.01 5.17L36.01 5.17Q36.01 4.87 35.92 4.64L35.92 4.64L35.92 4.64Q35.82 4.42 35.66 4.27L35.66 4.27L35.66 4.27Q35.51 4.13 35.33 4.06L35.33 4.06L35.33 4.06Q35.15 3.99 34.99 3.99L34.99 3.99L34.99 3.99Q34.62 3.99 34.19 4.28L34.19 4.28L34.19 4.28Q33.76 4.57 33.37 5.15L33.37 5.15L33.37 5.15Q32.99 5.73 32.74 6.62L32.74 6.62L32.74 6.62Q32.48 7.52 32.48 8.75L32.48 8.75L32.48 8.75Q32.48 9.97 32.70 10.74L32.70 10.74L32.70 10.74Q32.92 11.51 33.24 11.94L33.24 11.94L33.24 11.94Q33.55 12.37 33.90 12.53L33.90 12.53L33.90 12.53Q34.25 12.69 34.49 12.69L34.49 12.69L34.49 12.69Q34.97 12.65 35.37 12.36L35.37 12.36L35.37 12.36Q35.71 12.11 36.02 11.57L36.02 11.57L36.02 11.57Q36.33 11.03 36.44 10.02L36.44 10.02L36.44 10.02Q36.61 10.04 36.73 10.10L36.73 10.10L36.73 10.10Q36.85 10.17 36.93 10.24L36.93 10.24L36.93 10.24Q37.01 10.32 37.08 10.43L37.08 10.43L37.08 10.43Q37.09 10.45 37.08 10.71L37.08 10.71L37.08 10.71Q37.06 10.96 36.98 11.33L36.98 11.33L36.98 11.33Q36.90 11.70 36.73 12.13L36.73 12.13L36.73 12.13Q36.56 12.55 36.25 12.92L36.25 12.92L36.25 12.92Q35.94 13.29 35.48 13.53L35.48 13.53L35.48 13.53Q35.01 13.77 34.34 13.77ZM41.79 10.21L41.79 10.21L41.79 10.21Q41.77 10.75 41.61 11.20L41.61 11.20L41.61 11.20Q41.45 11.65 41.18 11.98L41.18 11.98L41.18 11.98Q40.91 12.32 40.53 12.51L40.53 12.51L40.53 12.51Q40.15 12.70 39.70 12.71L39.70 12.71L39.70 12.71Q39.31 12.73 38.96 12.52L38.96 12.52L38.96 12.52Q38.61 12.32 38.35 11.95L38.35 11.95L38.35 11.95Q38.09 11.58 37.96 11.07L37.96 11.07L37.96 11.07Q37.83 10.55 37.88 9.95L37.88 9.95L37.88 9.95Q37.93 9.26 38.14 8.76L38.14 8.76L38.14 8.76Q38.36 8.26 38.61 7.93L38.61 7.93L38.61 7.93Q38.86 7.60 39.07 7.44L39.07 7.44L39.07 7.44Q39.28 7.29 39.33 7.26L39.33 7.26L39.33 7.26Q39.43 7.22 39.51 7.24L39.51 7.24L39.51 7.24Q39.59 7.26 39.69 7.29L39.69 7.29L39.69 7.29Q39.72 7.30 39.74 7.36L39.74 7.36L39.74 7.36Q39.80 7.45 39.81 7.71L39.81 7.71L39.81 7.71Q39.88 7.56 39.99 7.46L39.99 7.46L39.99 7.46Q40.10 7.37 40.21 7.33L40.21 7.33L40.21 7.33Q40.35 7.27 40.48 7.26L40.48 7.26L40.48 7.26Q40.58 7.25 40.82 7.41L40.82 7.41L40.82 7.41Q41.06 7.57 41.28 7.93L41.28 7.93L41.28 7.93Q41.51 8.29 41.67 8.85L41.67 8.85L41.67 8.85Q41.84 9.42 41.79 10.21ZM40.87 10.05L40.87 10.05L40.87 10.05Q40.88 9.72 40.84 9.39L40.84 9.39L40.84 9.39Q40.81 9.05 40.74 8.77L40.74 8.77L40.74 8.77Q40.66 8.49 40.55 8.32L40.55 8.32L40.55 8.32Q40.44 8.15 40.33 8.15L40.33 8.15L40.33 8.15Q40.21 8.18 40.06 8.27L40.06 8.27L40.06 8.27Q39.94 8.35 39.79 8.53L39.79 8.53L39.79 8.53Q39.63 8.71 39.50 9.04L39.50 9.04L39.50 9.04Q39.48 9.00 39.47 8.89L39.47 8.89L39.47 8.89Q39.46 8.79 39.45 8.63L39.45 8.63L39.45 8.63Q39.44 8.48 39.47 8.20L39.47 8.20L39.47 8.20Q39.28 8.44 39.18 8.75L39.18 8.75L39.18 8.75Q39.07 9.06 39.02 9.35L39.02 9.35L39.02 9.35Q38.96 9.69 38.94 10.04L38.94 10.04L38.94 10.04Q38.92 10.40 38.97 10.76L38.97 10.76L38.97 10.76Q39.02 11.12 39.14 11.39L39.14 11.39L39.14 11.39Q39.25 11.66 39.42 11.83L39.42 11.83L39.42 11.83Q39.58 11.99 39.81 11.98L39.81 11.98L39.81 11.98Q40.04 11.96 40.22 11.79L40.22 11.79L40.22 11.79Q40.40 11.61 40.54 11.33L40.54 11.33L40.54 11.33Q40.67 11.06 40.76 10.72L40.76 10.72L40.76 10.72Q40.84 10.38 40.87 10.05ZM46.28 10.84L46.28 10.84L46.28 10.84Q46.28 10.99 46.18 11.30L46.18 11.30L46.18 11.30Q46.07 11.61 45.84 11.92L45.84 11.92L45.84 11.92Q45.61 12.22 45.25 12.46L45.25 12.46L45.25 12.46Q44.88 12.69 44.37 12.69L44.37 12.69L44.37 12.69Q43.63 12.69 43.13 12.28L43.13 12.28L43.13 12.28Q42.63 11.88 42.42 11.13L42.42 11.13L42.42 11.13Q42.26 10.50 42.33 9.78L42.33 9.78L42.33 9.78Q42.41 9.06 42.72 8.45L42.72 8.45L42.72 8.45Q43.04 7.83 43.60 7.40L43.60 7.40L43.60 7.40Q44.16 6.97 44.97 6.93L44.97 6.93L44.97 6.93Q45.38 6.92 45.65 7.08L45.65 7.08L45.65 7.08Q45.92 7.25 46.07 7.51L46.07 7.51L46.07 7.51Q46.22 7.77 46.25 8.07L46.25 8.07L46.25 8.07Q46.28 8.38 46.19 8.65L46.19 8.65L46.19 8.65Q46.10 8.93 45.92 9.11L45.92 9.11L45.92 9.11Q45.73 9.30 45.45 9.31L45.45 9.31L45.45 9.31Q45.16 9.34 44.97 9.24L44.97 9.24L44.97 9.24Q44.79 9.13 44.69 8.98L44.69 8.98L44.69 8.98Q44.58 8.83 44.55 8.67L44.55 8.67L44.55 8.67Q44.52 8.50 44.54 8.38L44.54 8.38L44.54 8.38Q44.58 8.20 44.68 8.05L44.68 8.05L44.68 8.05Q44.76 7.92 44.92 7.78L44.92 7.78L44.92 7.78Q45.08 7.64 45.34 7.56L45.34 7.56L45.34 7.56Q45.29 7.53 45.25 7.53L45.25 7.53L45.25 7.53Q45.21 7.53 45.17 7.52L45.17 7.52L45.17 7.52Q45.12 7.52 45.09 7.51L45.09 7.51L45.09 7.51Q44.87 7.51 44.59 7.66L44.59 7.66L44.59 7.66Q44.31 7.81 44.06 8.13L44.06 8.13L44.06 8.13Q43.80 8.46 43.63 8.98L43.63 8.98L43.63 8.98Q43.46 9.49 43.46 10.21L43.46 10.21L43.46 10.21Q43.46 10.53 43.53 10.83L43.53 10.83L43.53 10.83Q43.60 11.14 43.74 11.38L43.74 11.38L43.74 11.38Q43.89 11.62 44.10 11.76L44.10 11.76L44.10 11.76Q44.31 11.91 44.60 11.91L44.60 11.91L44.60 11.91Q44.93 11.91 45.18 11.76L45.18 11.76L45.18 11.76Q45.43 11.62 45.61 11.43L45.61 11.43L45.61 11.43Q45.79 11.24 45.89 11.05L45.89 11.05L45.89 11.05Q45.99 10.86 46.03 10.76L46.03 10.76L46.03 10.76Q46.07 10.68 46.18 10.68L46.18 10.68L46.18 10.68Q46.28 10.68 46.28 10.84ZM49.83 9.30L49.83 9.30L49.83 9.30Q50.12 9.42 50.38 9.69L50.38 9.69L50.38 9.69Q50.64 9.95 50.71 10.49L50.71 10.49L50.71 10.49Q50.76 10.95 50.86 11.32L50.86 11.32L50.86 11.32Q50.96 11.69 51.13 11.98L51.13 11.98L51.13 11.98Q51.31 12.28 51.60 12.50L51.60 12.50L51.60 12.50Q51.90 12.73 52.36 12.89L52.36 12.89L52.36 12.89Q52.24 13.00 52.07 13.07L52.07 13.07L52.07 13.07Q51.90 13.14 51.75 13.17L51.75 13.17L51.75 13.17Q51.57 13.22 51.38 13.22L51.38 13.22L51.38 13.22Q50.93 13.26 50.64 13.10L50.64 13.10L50.64 13.10Q50.35 12.95 50.19 12.65L50.19 12.65L50.19 12.65Q50.03 12.35 49.94 11.95L49.94 11.95L49.94 11.95Q49.86 11.55 49.82 11.13L49.82 11.13L49.82 11.13Q49.81 10.95 49.78 10.76L49.78 10.76L49.78 10.76Q49.75 10.57 49.68 10.39L49.68 10.39L49.68 10.39Q49.62 10.21 49.50 10.06L49.50 10.06L49.50 10.06Q49.38 9.91 49.21 9.83L49.21 9.83L49.21 9.83Q48.90 10.06 48.65 10.23L48.65 10.23L48.65 10.23Q48.40 10.40 48.21 10.51L48.21 10.51L48.21 10.51Q48.22 11.25 48.28 11.73L48.28 11.73L48.28 11.73Q48.34 12.21 48.45 12.37L48.45 12.37L48.45 12.37Q48.36 12.44 48.26 12.49L48.26 12.49L48.26 12.49Q48.17 12.54 48.10 12.56L48.10 12.56L48.10 12.56Q48.00 12.61 47.92 12.62L47.92 12.62L47.92 12.62Q47.65 12.70 47.43 12.60L47.43 12.60L47.43 12.60Q47.22 12.50 47.21 12.06L47.21 12.06L47.13 4.07L47.13 4.07Q47.13 3.96 47.34 3.85L47.34 3.85L47.34 3.85Q47.55 3.73 47.81 3.66L47.81 3.66L47.81 3.66Q48.07 3.60 48.28 3.60L48.28 3.60L48.28 3.60Q48.49 3.60 48.48 3.72L48.48 3.72L48.48 3.72Q48.44 4.66 48.40 5.50L48.40 5.50L48.40 5.50Q48.36 6.33 48.33 6.97L48.33 6.97L48.33 6.97Q48.29 7.72 48.26 8.34L48.26 8.34L48.26 8.34Q48.23 8.71 48.23 9.05L48.23 9.05L48.23 9.05Q48.22 9.39 48.21 9.71L48.21 9.71L48.21 9.71Q48.47 9.50 48.75 9.26L48.75 9.26L48.75 9.26Q49.04 9.01 49.30 8.71L49.30 8.71L49.30 8.71Q49.56 8.41 49.74 8.06L49.74 8.06L49.74 8.06Q49.92 7.71 49.94 7.31L49.94 7.31L49.94 7.31Q50.09 7.21 50.25 7.13L50.25 7.13L50.25 7.13Q50.41 7.05 50.53 7.01L50.53 7.01L50.53 7.01Q50.68 6.96 50.80 6.96L50.80 6.96L50.80 6.96Q51.12 6.95 51.17 7.10L51.17 7.10L51.17 7.10Q51.21 7.21 51.17 7.42L51.17 7.42L51.17 7.42Q51.12 7.63 50.96 7.92L50.96 7.92L50.96 7.92Q50.80 8.22 50.53 8.57L50.53 8.57L50.53 8.57Q50.26 8.91 49.83 9.30ZM57.16 6.48L57.16 6.48L57.16 6.48Q57.01 6.45 56.76 6.43L56.76 6.43L56.76 6.43Q56.51 6.40 56.25 6.38L56.25 6.38L56.25 6.38Q55.95 6.37 55.60 6.37L55.60 6.37L55.60 6.37Q55.26 6.34 54.75 6.36L54.75 6.36L54.75 6.36Q54.24 6.38 53.68 6.38L53.68 6.38L53.68 6.38Q53.66 6.74 53.63 7.11L53.63 7.11L53.63 7.11Q53.59 7.48 53.57 7.83L53.57 7.83L53.57 7.83Q53.50 8.49 53.45 9.17L53.45 9.17L53.45 9.17Q53.40 9.86 53.40 10.47L53.40 10.47L53.40 10.47Q53.40 11.09 53.48 11.59L53.48 11.59L53.48 11.59Q53.55 12.09 53.76 12.37L53.76 12.37L53.76 12.37Q53.59 12.50 53.40 12.56L53.40 12.56L53.40 12.56Q53.21 12.62 53.06 12.65L53.06 12.65L53.06 12.65Q52.88 12.69 52.71 12.69L52.71 12.69L52.71 12.69Q52.54 12.69 52.43 12.58L52.43 12.58L52.43 12.58Q52.32 12.47 52.31 12.20L52.31 12.20L52.31 12.20Q52.28 11.73 52.30 11.26L52.30 11.26L52.30 11.26Q52.32 10.79 52.36 10.27L52.36 10.27L52.36 10.27Q52.39 9.75 52.43 9.15L52.43 9.15L52.43 9.15Q52.47 8.56 52.51 7.85L52.51 7.85L52.51 7.85Q52.55 7.11 52.55 6.41L52.55 6.41L52.55 6.41Q52.04 6.43 51.68 6.43L51.68 6.43L51.68 6.43Q51.32 6.43 51.28 6.41L51.28 6.41L51.28 6.41Q51.24 6.38 51.19 6.29L51.19 6.29L51.19 6.29Q51.13 6.21 51.04 6.04L51.04 6.04L51.04 6.04Q50.96 5.88 50.82 5.58L50.82 5.58L50.82 5.58Q51.08 5.58 51.39 5.58L51.39 5.58L51.39 5.58Q51.69 5.58 51.95 5.56L51.95 5.56L51.95 5.56Q52.25 5.55 52.55 5.54L52.55 5.54L52.55 5.54Q52.54 5.32 52.54 5.07L52.54 5.07L52.54 5.07Q52.53 4.88 52.53 4.64L52.53 4.64L52.53 4.64Q52.53 4.40 52.51 4.20L52.51 4.20L52.51 4.20Q52.51 4.12 52.71 4.00L52.71 4.00L52.71 4.00Q52.91 3.88 53.14 3.79L53.14 3.79L53.14 3.79Q53.38 3.69 53.57 3.66L53.57 3.66L53.57 3.66Q53.77 3.64 53.77 3.76L53.77 3.76L53.77 3.76Q53.77 3.88 53.76 4.35L53.76 4.35L53.76 4.35Q53.76 4.83 53.73 5.50L53.73 5.50L53.73 5.50Q53.87 5.50 53.94 5.48L53.94 5.48L53.94 5.48Q54.66 5.46 55.10 5.42L55.10 5.42L55.10 5.42Q55.55 5.39 55.84 5.41L55.84 5.41L55.84 5.41Q56.12 5.44 56.34 5.55L56.34 5.55L56.34 5.55Q56.56 5.66 56.83 5.91L56.83 5.91L56.83 5.91Q56.93 5.99 57.00 6.08L57.00 6.08L57.00 6.08Q57.07 6.17 57.11 6.27L57.11 6.27L57.11 6.27Q57.16 6.37 57.16 6.48ZM58.82 11.87L58.82 11.87L58.82 11.87Q58.84 11.96 58.90 12.04L58.90 12.04L58.90 12.04Q58.94 12.11 59.01 12.17L59.01 12.17L59.01 12.17Q59.09 12.24 59.20 12.25L59.20 12.25L59.20 12.25Q59.10 12.44 59.01 12.51L59.01 12.51L59.01 12.51Q58.95 12.55 58.91 12.56L58.91 12.56L58.91 12.56Q58.79 12.61 58.54 12.61L58.54 12.61L58.54 12.61Q58.30 12.61 58.06 12.46L58.06 12.46L58.06 12.46Q57.98 12.39 57.91 12.25L57.91 12.25L57.91 12.25Q57.85 12.14 57.80 11.94L57.80 11.94L57.80 11.94Q57.75 11.74 57.72 11.43L57.72 11.43L57.72 11.43Q57.53 11.84 57.29 12.08L57.29 12.08L57.29 12.08Q57.05 12.32 56.82 12.43L56.82 12.43L56.82 12.43Q56.56 12.58 56.29 12.61L56.29 12.61L56.29 12.61Q55.95 12.63 55.64 12.49L55.64 12.49L55.64 12.49Q55.33 12.35 55.12 12.05L55.12 12.05L55.12 12.05Q54.91 11.76 54.80 11.33L54.80 11.33L54.80 11.33Q54.69 10.91 54.73 10.38L54.73 10.38L54.73 10.38Q54.77 9.82 54.95 9.38L54.95 9.38L54.95 9.38Q55.13 8.94 55.37 8.60L55.37 8.60L55.37 8.60Q55.62 8.26 55.89 8.02L55.89 8.02L55.89 8.02Q56.16 7.78 56.42 7.62L56.42 7.62L56.42 7.62Q56.67 7.46 56.85 7.39L56.85 7.39L56.85 7.39Q57.04 7.31 57.09 7.30L57.09 7.30L57.09 7.30Q57.24 7.26 57.35 7.27L57.35 7.27L57.35 7.27Q57.46 7.29 57.54 7.40L57.54 7.40L57.54 7.40Q57.57 7.44 57.61 7.49L57.61 7.49L57.61 7.49Q57.64 7.55 57.68 7.64L57.68 7.64L57.68 7.64Q57.72 7.72 57.75 7.83L57.75 7.83L57.75 7.83Q57.42 7.98 57.13 8.17L57.13 8.17L57.13 8.17Q56.85 8.35 56.61 8.61L56.61 8.61L56.61 8.61Q56.37 8.87 56.19 9.24L56.19 9.24L56.19 9.24Q56.01 9.61 55.92 10.14L55.92 10.14L55.92 10.14Q55.78 10.81 55.99 11.22L55.99 11.22L55.99 11.22Q56.21 11.63 56.57 11.57L56.57 11.57L56.57 11.57Q56.79 11.50 57.00 11.31L57.00 11.31L57.00 11.31Q57.18 11.14 57.37 10.81L57.37 10.81L57.37 10.81Q57.57 10.49 57.75 9.91L57.75 9.91L57.75 9.91Q57.82 9.09 57.87 8.62L57.87 8.62L57.87 8.62Q57.91 8.15 57.96 7.90L57.96 7.90L57.96 7.90Q58.01 7.62 58.04 7.52L58.04 7.52L58.04 7.52Q58.08 7.45 58.20 7.39L58.20 7.39L58.20 7.39Q58.32 7.33 58.47 7.29L58.47 7.29L58.47 7.29Q58.63 7.25 58.75 7.24L58.75 7.24L58.75 7.24Q58.87 7.23 58.91 7.25L58.91 7.25L58.91 7.25Q58.94 7.26 58.94 7.58L58.94 7.58L58.94 7.58Q58.94 7.90 58.92 8.39L58.92 8.39L58.92 8.39Q58.90 8.87 58.87 9.44L58.87 9.44L58.87 9.44Q58.84 10.01 58.82 10.51L58.82 10.51L58.82 10.51Q58.80 11.02 58.80 11.40L58.80 11.40L58.80 11.40Q58.79 11.77 58.82 11.87ZM60.07 7.72L60.07 7.72L60.07 7.72Q60.07 7.64 60.29 7.55L60.29 7.55L60.29 7.55Q60.51 7.45 60.78 7.39L60.78 7.39L60.78 7.39Q61.04 7.33 61.27 7.32L61.27 7.32L61.27 7.32Q61.50 7.31 61.50 7.42L61.50 7.42L61.50 7.42Q61.50 7.63 61.47 8.00L61.47 8.00L61.47 8.00Q61.44 8.38 61.40 8.80L61.40 8.80L61.40 8.80Q61.36 9.21 61.32 9.63L61.32 9.63L61.32 9.63Q61.28 10.05 61.26 10.34L61.26 10.34L61.26 10.34Q61.24 10.64 61.21 10.99L61.21 10.99L61.21 10.99Q61.18 11.29 61.17 11.66L61.17 11.66L61.17 11.66Q61.15 12.03 61.17 12.41L61.17 12.41L61.17 12.41Q61.17 12.48 61.03 12.55L61.03 12.55L61.03 12.55Q60.89 12.62 60.73 12.65L60.73 12.65L60.73 12.65Q60.57 12.69 60.42 12.69L60.42 12.69L60.42 12.69Q60.27 12.69 60.25 12.63L60.25 12.63L60.25 12.63Q60.22 12.58 60.20 12.44L60.20 12.44L60.20 12.44Q60.17 12.30 60.14 12.05L60.14 12.05L60.14 12.05Q60.12 11.80 60.10 11.40L60.10 11.40L60.10 11.40Q60.09 10.99 60.12 10.42L60.12 10.42L60.12 10.42Q60.17 9.28 60.13 8.66L60.13 8.66L60.13 8.66Q60.09 8.04 60.07 7.72ZM61.03 5.00L61.03 5.00L61.03 5.00Q61.30 5.00 61.55 5.17L61.55 5.17L61.55 5.17Q61.80 5.33 61.80 5.61L61.80 5.61L61.80 5.61Q61.80 5.81 61.69 6.00L61.69 6.00L61.69 6.00Q61.59 6.19 61.44 6.34L61.44 6.34L61.44 6.34Q61.29 6.49 61.10 6.58L61.10 6.58L61.10 6.58Q60.91 6.67 60.74 6.67L60.74 6.67L60.74 6.67Q60.53 6.67 60.39 6.60L60.39 6.60L60.39 6.60Q60.25 6.52 60.18 6.42L60.18 6.42L60.18 6.42Q60.10 6.32 60.07 6.19L60.07 6.19L60.07 6.19Q60.05 6.07 60.05 5.96L60.05 5.96L60.05 5.96Q60.05 5.82 60.09 5.65L60.09 5.65L60.09 5.65Q60.13 5.48 60.24 5.34L60.24 5.34L60.24 5.34Q60.35 5.20 60.54 5.10L60.54 5.10L60.54 5.10Q60.73 5.00 61.03 5.00ZM60.69 6.28L60.69 6.28L60.69 6.28Q60.77 6.28 60.87 6.21L60.87 6.21L60.87 6.21Q60.98 6.15 61.07 6.07L61.07 6.07L61.07 6.07Q61.15 5.99 61.22 5.89L61.22 5.89L61.22 5.89Q61.28 5.80 61.28 5.73L61.28 5.73L61.28 5.73Q61.28 5.62 61.17 5.62L61.17 5.62L61.17 5.62Q61.10 5.62 61.00 5.67L61.00 5.67L61.00 5.67Q60.89 5.73 60.80 5.80L60.80 5.80L60.80 5.80Q60.70 5.88 60.64 5.97L60.64 5.97L60.64 5.97Q60.58 6.06 60.58 6.14L60.58 6.14L60.58 6.14Q60.58 6.28 60.69 6.28ZM64.22 3.71L64.22 3.71L64.22 3.71Q64.19 4.20 64.12 4.84L64.12 4.84L64.12 4.84Q64.05 5.48 63.98 6.22L63.98 6.22L63.98 6.22Q63.90 6.96 63.83 7.77L63.83 7.77L63.83 7.77Q63.75 8.57 63.70 9.39L63.70 9.39L63.70 9.39Q63.64 10.21 63.65 10.73L63.65 10.73L63.65 10.73Q63.66 11.24 63.71 11.57L63.71 11.57L63.71 11.57Q63.77 11.89 63.86 12.09L63.86 12.09L63.86 12.09Q63.96 12.28 64.11 12.46L64.11 12.46L64.11 12.46Q63.93 12.56 63.78 12.62L63.78 12.62L63.78 12.62Q63.63 12.67 63.52 12.70L63.52 12.70L63.52 12.70Q63.38 12.74 63.27 12.74L63.27 12.74L63.27 12.74Q63.07 12.74 62.92 12.54L62.92 12.54L62.92 12.54Q62.77 12.35 62.68 12.03L62.68 12.03L62.68 12.03Q62.59 11.72 62.54 11.33L62.54 11.33L62.54 11.33Q62.49 10.94 62.49 10.55L62.49 10.55L62.49 10.55Q62.49 10.14 62.52 9.60L62.52 9.60L62.52 9.60Q62.55 9.06 62.58 8.46L62.58 8.46L62.58 8.46Q62.62 7.85 62.66 7.18L62.66 7.18L62.66 7.18Q62.70 6.52 62.73 5.87L62.73 5.87L62.73 5.87Q62.75 5.36 62.78 4.95L62.78 4.95L62.78 4.95Q62.81 4.59 62.82 4.30L62.82 4.30L62.82 4.30Q62.84 4.01 62.81 3.95L62.81 3.95L62.81 3.95Q62.89 3.84 63.01 3.79L63.01 3.79L63.01 3.79Q63.14 3.73 63.25 3.69L63.25 3.69L63.25 3.69Q63.38 3.65 63.52 3.62L63.52 3.62L63.78 3.62L63.78 3.62Q63.89 3.62 64.01 3.64L64.01 3.64L64.01 3.64Q64.13 3.66 64.22 3.71Z"></path></g><defs data-v-fde0c5aa=""><!----></defs><g data-v-fde0c5aa="" id="a8f9fa82-a2ae-4994-90b8-84258b773eb5" stroke="none" fill="#FFFFFF" transform="matrix(1.1542065891448756,0,0,1.1542065891448756,92.28851256724298,50.659643932496465)"><g fill-rule="evenodd"><path d="M5 21.13v3.777h21.01c1.318 4.274 6.082 24.15-7.908 54.3h33.816c.485-5.493 4.534-9.738 9.443-9.738.949 0 1.853.177 2.715.472-3.974-6.577-2.351-13.923 1.948-21.659 1.966 6.106 3.306 14.653-1.948 21.659 3.595 1.233 6.277 4.835 6.669 9.266h11.096c-13.956-30.14-9.172-50.02-7.849-54.3h21.01V21.13h-90m43.495 29.449c7.07 5.624 10.794 11.367 10.21 19.298-7.374-3.615-9.931-10.638-10.21-19.298"></path><path d="M60.29 75.4a2.125 2.125 0 0 1-4.249 0 2.125 2.125 0 1 1 4.25 0M66.664 75.4a2.125 2.125 0 0 1-4.25 0 2.125 2.125 0 1 1 4.25 0"></path></g></g><defs data-v-fde0c5aa=""><!----></defs><g data-v-fde0c5aa="" id="a3aea620-2ff6-4d29-9205-7466353eef2a" fill="#FFFFFF" transform="matrix(0.8885041186285153,0,0,0.8885041186285153,51.389369851714356,210.82475644842918)"><path d="M3.56 13.96C4.55 13.96 5.56 13.37 6.33 12.73L6.37 12.73L6.44 13.78L7.11 13.78L7.11 9.27C7.11 7.67 6.31 6.47 4.49 6.47C3.30 6.47 2.32 7.08 1.83 7.50L2.17 8.11C2.66 7.67 3.42 7.17 4.37 7.17C5.82 7.17 6.29 8.19 6.30 9.28C2.70 9.62 1.25 10.37 1.25 12.00C1.25 13.30 2.34 13.96 3.56 13.96ZM3.74 13.29C2.88 13.29 2.04 12.89 2.04 11.94C2.04 10.85 3.07 10.18 6.30 9.87L6.30 12.05C5.42 12.87 4.56 13.29 3.74 13.29ZM16.81 13.78L17.63 13.78L17.63 8.71C18.54 7.67 19.15 7.18 20.05 7.18C21.31 7.18 21.83 7.92 21.83 9.44L21.83 13.78L22.64 13.78L22.64 9.32C22.64 7.42 21.88 6.47 20.24 6.47C19.18 6.47 18.38 7.10 17.63 7.98L17.57 7.98L17.49 6.64L16.81 6.64ZM34.68 13.96C35.56 13.96 36.41 13.38 36.99 12.74L37.03 12.74L37.11 13.78L37.79 13.78L37.79 3.57L36.99 3.57L36.99 6.03L37.02 7.46C36.33 6.83 35.69 6.47 34.85 6.47C33.21 6.47 31.71 7.92 31.71 10.22C31.71 12.61 32.89 13.96 34.68 13.96ZM34.80 13.26C33.39 13.26 32.55 12.05 32.55 10.22C32.55 8.48 33.61 7.17 34.96 7.17C35.62 7.17 36.27 7.45 36.99 8.16L36.99 12.00C36.29 12.82 35.55 13.26 34.80 13.26ZM50.40 8.75C50.90 8.75 51.35 8.37 51.35 7.73C51.35 7.11 50.90 6.73 50.40 6.73C49.90 6.73 49.45 7.11 49.45 7.73C49.45 8.37 49.90 8.75 50.40 8.75ZM50.40 13.94C50.90 13.94 51.35 13.55 51.35 12.94C51.35 12.31 50.90 11.93 50.40 11.93C49.90 11.93 49.45 12.31 49.45 12.94C49.45 13.55 49.90 13.94 50.40 13.94ZM79.30 9.24C80.39 9.24 81.19 8.39 81.19 6.93C81.19 5.46 80.39 4.66 79.30 4.66C78.18 4.66 77.38 5.46 77.38 6.93C77.38 8.39 78.18 9.24 79.30 9.24ZM82.40 8.23L84.95 5.52L84.42 5.04L82.03 7.90ZM79.30 8.69C78.58 8.69 78.04 8.06 78.04 6.93C78.04 5.75 78.58 5.21 79.30 5.21C80.00 5.21 80.53 5.75 80.53 6.93C80.53 8.06 80.00 8.69 79.30 8.69ZM83.10 13.94C84.22 13.94 85.02 13.09 85.02 11.62C85.02 10.18 84.22 9.38 83.10 9.38C82.01 9.38 81.21 10.18 81.21 11.62C81.21 13.09 82.01 13.94 83.10 13.94ZM83.10 13.40C82.42 13.40 81.87 12.78 81.87 11.62C81.87 10.46 82.42 9.90 83.10 9.90C83.82 9.90 84.36 10.46 84.36 11.62C84.36 12.78 83.82 13.40 83.10 13.40ZM77.99 13.30L80.36 10.44L80.01 10.11L77.48 12.82ZM96.99 4.76C97.44 4.76 97.82 4.41 97.82 3.95C97.82 3.44 97.44 3.11 96.99 3.11C96.54 3.11 96.17 3.44 96.17 3.95C96.17 4.41 96.54 4.76 96.99 4.76ZM94.01 13.78L100.31 13.78L100.31 13.09L97.55 13.09L97.55 6.64L94.01 6.64L94.01 7.32L96.75 7.32L96.75 13.09L94.01 13.09ZM111.09 15.90L114.86 15.90L114.86 15.39L111.76 15.39L111.76 4.38L114.86 4.38L114.86 3.86L111.09 3.86ZM128.94 13.96C129.64 13.96 130.10 13.75 130.68 13.51L130.45 12.88C129.92 13.15 129.51 13.27 129.09 13.27C128.18 13.27 127.68 12.75 127.68 11.63L127.68 3.57L124.43 3.57L124.43 4.26L126.87 4.26L126.87 11.56C126.87 13.19 127.61 13.96 128.94 13.96ZM142.16 13.96C143.15 13.96 144.16 13.37 144.93 12.73L144.97 12.73L145.04 13.78L145.71 13.78L145.71 9.27C145.71 7.67 144.91 6.47 143.09 6.47C141.90 6.47 140.92 7.08 140.43 7.50L140.77 8.11C141.26 7.67 142.02 7.17 142.97 7.17C144.42 7.17 144.89 8.19 144.90 9.28C141.30 9.62 139.85 10.37 139.85 12.00C139.85 13.30 140.94 13.96 142.16 13.96ZM142.34 13.29C141.48 13.29 140.64 12.89 140.64 11.94C140.64 10.85 141.67 10.18 144.90 9.87L144.90 12.05C144.02 12.87 143.16 13.29 142.34 13.29ZM157.88 13.96C158.76 13.96 159.61 13.38 160.19 12.74L160.23 12.74L160.31 13.78L160.99 13.78L160.99 3.57L160.19 3.57L160.19 6.03L160.22 7.46C159.53 6.83 158.89 6.47 158.05 6.47C156.41 6.47 154.91 7.92 154.91 10.22C154.91 12.61 156.09 13.96 157.88 13.96ZM158.00 13.26C156.59 13.26 155.75 12.05 155.75 10.22C155.75 8.48 156.81 7.17 158.16 7.17C158.82 7.17 159.47 7.45 160.19 8.16L160.19 12.00C159.49 12.82 158.75 13.26 158.00 13.26ZM173.99 4.76C174.44 4.76 174.82 4.41 174.82 3.95C174.82 3.44 174.44 3.11 173.99 3.11C173.54 3.11 173.17 3.44 173.17 3.95C173.17 4.41 173.54 4.76 173.99 4.76ZM171.01 13.78L177.31 13.78L177.31 13.09L174.55 13.09L174.55 6.64L171.01 6.64L171.01 7.32L173.75 7.32L173.75 13.09L171.01 13.09ZM189.42 13.96C190.58 13.96 191.37 13.54 192.00 13.12L191.69 12.53C191.04 12.98 190.37 13.26 189.50 13.26C187.85 13.26 186.70 12.07 186.69 10.36L192.25 10.36C192.28 10.18 192.28 9.98 192.28 9.79C192.28 7.74 191.11 6.47 189.24 6.47C187.50 6.47 185.84 7.91 185.84 10.22C185.84 12.56 187.46 13.96 189.42 13.96ZM186.68 9.73C186.86 8.12 188.01 7.13 189.24 7.13C190.62 7.13 191.51 8.04 191.51 9.73ZM204.61 13.96C206.46 13.96 207.49 13.01 207.49 11.89C207.49 10.88 206.72 10.30 204.72 9.77C203.39 9.42 202.54 9.02 202.54 8.37C202.54 7.73 202.97 7.13 204.40 7.13C205.28 7.13 206.02 7.45 206.61 7.91L207.05 7.34C206.39 6.86 205.35 6.47 204.41 6.47C202.58 6.47 201.68 7.35 201.68 8.41C201.68 9.35 202.85 10.02 204.32 10.40C206.19 10.88 206.65 11.34 206.65 11.94C206.65 12.68 205.98 13.29 204.65 13.29C203.32 13.29 202.47 12.89 201.73 12.28L201.31 12.84C202.12 13.44 203.25 13.96 204.61 13.96ZM216.96 15.90L220.72 15.90L220.72 3.86L216.96 3.86L216.96 4.38L220.04 4.38L220.04 15.39L216.96 15.39Z"></path></g></svg>