<svg data-v-fde0c5aa="" xmlns="http://www.w3.org/2000/svg" viewBox="0 0 300 300" class="icon"><!----><defs data-v-fde0c5aa=""><!----></defs><rect data-v-fde0c5aa="" fill="#000000" x="0" y="0" width="300px" height="300px" class="logo-background-square"></rect><!----><defs data-v-fde0c5aa=""><!----></defs><g data-v-fde0c5aa="" id="fe121462-0203-4de6-89e0-26eff7b3bd8e" fill="#FFFFFF" stroke="none" transform="matrix(2.4443899472930792,0,0,2.4443899472930792,27.778050263534602,27.368620728619746)"><g fill-rule="evenodd"><path d="M5 21.13v3.777h21.01c1.318 4.274 6.082 24.15-7.908 54.3h33.816c.485-5.493 4.534-9.738 9.443-9.738.949 0 1.853.177 2.715.472-3.974-6.577-2.351-13.923 1.948-21.659 1.966 6.106 3.306 14.653-1.948 21.659 3.595 1.233 6.277 4.835 6.669 9.266h11.096c-13.956-30.14-9.172-50.02-7.849-54.3h21.01V21.13h-90m43.495 29.449c7.07 5.624 10.794 11.367 10.21 19.298-7.374-3.615-9.931-10.638-10.21-19.298"></path><path d="M60.29 75.4a2.125 2.125 0 0 1-4.249 0 2.125 2.125 0 1 1 4.25 0M66.664 75.4a2.125 2.125 0 0 1-4.25 0 2.125 2.125 0 1 1 4.25 0"></path></g></g><!----></svg>